<?xml version="1.0" encoding="UTF-8" standalone="no"?>
<svg width="20px" height="20px" viewBox="0 0 20 20" version="1.1" xmlns="http://www.w3.org/2000/svg" xmlns:xlink="http://www.w3.org/1999/xlink">
    <!-- Generator: Sketch 39.1 (31720) - http://www.bohemiancoding.com/sketch -->
    <title>G Copy</title>
    <desc>Created with Sketch.</desc>
    <defs></defs>
    <g id="Page-1" stroke="none" stroke-width="1" fill="none" fill-rule="evenodd">
        <g id="Registration---Spec" transform="translate(-803.000000, -1755.000000)">
            <g id="G-Copy" transform="translate(803.000000, 1755.000000)">
                <path d="M9.88235294,3.86666667 C11.7380392,3.86666667 12.9898039,4.67777778 13.7035294,5.35555556 L16.492549,2.6 C14.7796078,0.988888889 12.5505882,0 9.88235294,0 C6.0172549,0 2.67921569,2.24444444 1.05411765,5.51111111 L4.24941176,8.02222222 C5.05098039,5.61111111 7.26901961,3.86666667 9.88235294,3.86666667 L9.88235294,3.86666667 Z" id="Shape" fill="#EA4335"></path>
                <path d="M19.3694118,10.2222222 C19.3694118,9.4 19.3035294,8.8 19.1607843,8.17777778 L9.88235294,8.17777778 L9.88235294,11.8888889 L15.3286275,11.8888889 C15.2188235,12.8111111 14.6258824,14.2 13.3082353,15.1333333 L16.4266667,17.5777778 C18.2933333,15.8333333 19.3694118,13.2666667 19.3694118,10.2222222 L19.3694118,10.2222222 Z" id="Shape" fill="#4285F4"></path>
                <path d="M4.26039216,11.9777778 C4.05176471,11.3555556 3.93098039,10.6888889 3.93098039,10 C3.93098039,9.31111111 4.05176471,8.64444444 4.24941176,8.02222222 L1.05411765,5.51111111 C0.384313725,6.86666667 0,8.38888889 0,10 C0,11.6111111 0.384313725,13.1333333 1.05411765,14.4888889 L4.26039216,11.9777778 L4.26039216,11.9777778 Z" id="Shape" fill="#FBBC05"></path>
                <path d="M9.88235294,20 C12.5505882,20 14.7905882,19.1111111 16.4266667,17.5777778 L13.3082353,15.1333333 C12.4737255,15.7222222 11.3537255,16.1333333 9.88235294,16.1333333 C7.26901961,16.1333333 5.05098039,14.3888889 4.26039216,11.9777778 L1.06509804,14.4888889 C2.69019608,17.7555556 6.0172549,20 9.88235294,20 L9.88235294,20 Z" id="Shape" fill="#34A853"></path>
                <polygon id="Shape" points="0 0 19.7647059 0 19.7647059 20 0 20"></polygon>
            </g>
        </g>
    </g>
</svg>