<?xml version="1.0" encoding="UTF-8"?>
<svg width="166px" height="120px" viewBox="0 0 166 120" version="1.1" xmlns="http://www.w3.org/2000/svg" xmlns:xlink="http://www.w3.org/1999/xlink">
    <!-- Generator: Sketch 45.2 (43514) - http://www.bohemiancoding.com/sketch -->
    <title>Illustration</title>
    <desc>Created with Sketch.</desc>
    <defs>
        <path d="M119.993,66.3970056 C116.799757,96.5263254 91.306081,120 60.33,120 C27.193,120 0.329,93.137 0.329,60 C0.329,26.863 27.193,0 60.33,0 C91.306081,0 116.799757,23.4736746 119.993,53.6029944 L119.993,66.3970056 L119.993,66.3970056 Z" id="path-1"></path>
        <path d="M0.884,46.021 C0.884,71.417 21.47,92.003 46.864,92.003 L46.864,92.003 C72.26,92.003 92.845,71.417 92.845,46.021 L92.845,46.021 C92.845,20.627 72.26,0.04 46.864,0.04 L46.864,0.04 C21.47,0.04 0.884,20.627 0.884,46.021 L0.884,46.021 Z" id="path-3"></path>
    </defs>
    <g id="Page-1" stroke="none" stroke-width="1" fill="none" fill-rule="evenodd">
        <g id="170721_SWIFT-BIC_hp-concept" transform="translate(-660.000000, -96.000000)">
            <g id="Illustration" transform="translate(660.000000, 96.000000)">
                <g id="Group-6">
                    <mask id="mask-2" fill="white">
                        <use xlink:href="#path-1"></use>
                    </mask>
                    <g id="Clip-2"></g>
                    <polygon id="Fill-1" fill="#FFE4E6" mask="url(#mask-2)" points="0 120 119.993 120 119.993 0 0 0"></polygon>
                    <polygon id="Fill-3" fill-opacity="0.1" fill="#000000" mask="url(#mask-2)" points="24.33 120 28.33 120 28.33 0 24.33 0"></polygon>
                    <polygon id="Fill-4" fill-opacity="0.1" fill="#000000" mask="url(#mask-2)" points="58.33 120 62.33 120 62.33 0 58.33 0"></polygon>
                    <polygon id="Fill-5" fill-opacity="0.1" fill="#000000" mask="url(#mask-2)" points="90.33 120 94.33 120 94.33 0 90.33 0"></polygon>
                </g>
                <g id="Group-11" transform="translate(19.000000, 24.000000)" fill="#000000">
                    <path d="M106.8047,62.4595 L107.2487,61.3765 C107.7307,60.2015 107.1697,58.8585 105.9947,58.3765 C104.8207,57.8945 103.4767,58.4565 102.9947,59.6305 L102.1827,61.6085 L96.1017,60.4895 C95.2457,62.4015 94.2937,64.2585 93.2487,66.0585 L98.8067,69.8355 L98.1937,71.3285 C97.7117,72.5025 98.2727,73.8465 99.4477,74.3285 C100.6227,74.8105 101.9657,74.2495 102.4477,73.0745 L102.6927,72.4775 L136.3347,95.3435 L146.8097,69.8205 L106.8047,62.4595 Z" id="Fill-7" fill-opacity="0.1"></path>
                    <path d="M41.8647,83.5015 C19.0457,83.5015 0.4827,64.9365 0.4827,42.1175 C0.4827,19.2995 19.0457,0.7345 41.8647,0.7345 C64.6827,0.7345 83.2477,19.2995 83.2477,42.1175 C83.2477,64.9365 64.6827,83.5015 41.8647,83.5015" id="Fill-9"></path>
                </g>
                <polygon id="Fill-12" fill="#9090B8" points="155.3346 114.3435 165.8096 88.8205 99.9566 76.7025"></polygon>
                <g id="Group-17" transform="translate(14.000000, 14.000000)">
                    <path d="M104.4478,79.3281 L104.4478,79.3281 C103.2728,78.8461 102.7118,77.5031 103.1938,76.3281 L107.9948,64.6301 C108.4768,63.4561 109.8208,62.8951 110.9948,63.3771 C112.1698,63.8591 112.7308,65.2021 112.2488,66.3771 L107.4478,78.0741 C106.9658,79.2491 105.6218,79.8101 104.4478,79.3281" id="Fill-13" fill="#7271A5"></path>
                    <path d="M92.8457,46.0217 C92.8457,71.4167 72.2597,92.0027 46.8647,92.0027 C21.4707,92.0027 0.8837,71.4167 0.8837,46.0217 C0.8837,20.6267 21.4707,0.0407 46.8647,0.0407 C72.2597,0.0407 92.8457,20.6267 92.8457,46.0217" id="Fill-15" fill="#FED3D5"></path>
                </g>
                <g id="Group-31" transform="translate(14.000000, 14.000000)">
                    <polygon id="Fill-18" fill-opacity="0.1" fill="#000000" points="17.33 83 75.33 83 75.33 74 17.33 74"></polygon>
                    <mask id="mask-4" fill="white">
                        <use xlink:href="#path-3"></use>
                    </mask>
                    <g id="Clip-21"></g>
                    <polygon id="Fill-20" fill="#2E4369" mask="url(#mask-4)" points="1.33 79 91.33 79 91.33 1 1.33 1"></polygon>
                    <polygon id="Fill-22" fill="#576988" mask="url(#mask-4)" points="46.957 23.5701 32.33 35.0001 61.33 35.0001"></polygon>
                    <polygon id="Fill-23" fill="#576988" mask="url(#mask-4)" points="33.33 51 60.33 51 60.33 48 33.33 48"></polygon>
                    <polygon id="Fill-24" fill="#576988" mask="url(#mask-4)" points="39.33 48.5 42.33 48.5 42.33 34.5 39.33 34.5"></polygon>
                    <polygon id="Fill-25" fill="#576988" mask="url(#mask-4)" points="45.33 48.5 48.33 48.5 48.33 34.5 45.33 34.5"></polygon>
                    <polygon id="Fill-26" fill="#576988" mask="url(#mask-4)" points="51.33 48.5 54.33 48.5 54.33 34.5 51.33 34.5"></polygon>
                    <polygon id="Fill-27" fill="#5B88FB" mask="url(#mask-4)" points="35.0698 62 20.8458 62 22.5438 58 36.7678 58"></polygon>
                    <polygon id="Fill-28" fill="#5B88FB" mask="url(#mask-4)" points="45.7817 62 40.5767 62 42.2747 58 47.4797 58"></polygon>
                    <polygon id="Fill-29" fill="#5B88FB" mask="url(#mask-4)" points="56.4258 62 51.2208 62 52.9188 58 58.1238 58"></polygon>
                    <polygon id="Fill-30" fill="#5B88FB" mask="url(#mask-4)" points="71.4131 62 61.6991 62 63.3961 58 73.1111 58"></polygon>
                </g>
                <g id="Group-38" transform="translate(10.000000, 10.000000)">
                    <path d="M34.5518,12.2551 C13.7398,20.9541 3.8858,44.9641 12.5858,65.7771 C21.2848,86.5891 45.2938,96.4441 66.1068,87.7451 C86.9188,79.0451 96.7738,55.0351 88.0738,34.2231 C79.3748,13.4111 55.3638,3.5561 34.5518,12.2551 M69.6128,96.1321 C44.1758,106.7651 14.8308,94.7211 4.1978,69.2831 C-6.4352,43.8451 5.6098,14.5001 31.0458,3.8681 C56.4838,-6.7649 85.8278,5.2791 96.4618,30.7171 C107.0938,56.1551 95.0498,85.4991 69.6128,96.1321" id="Fill-32" fill="#7271A5"></path>
                    <path d="M35.8296,22 C35.8296,23.381 34.7106,24.5 33.3296,24.5 C31.9486,24.5 30.8296,23.381 30.8296,22 C30.8296,20.619 31.9486,19.5 33.3296,19.5 C34.7106,19.5 35.8296,20.619 35.8296,22" id="Fill-34" fill="#FFFFFF"></path>
                    <path d="M22.0469,39.084 L17.7849,37.359 C19.6349,32.79 22.3509,28.696 25.8549,25.193 L29.1049,28.446 C26.0399,31.51 23.6649,35.089 22.0469,39.084" id="Fill-36" fill="#FFFFFF"></path>
                </g>
            </g>
        </g>
    </g>
</svg>