<?xml version="1.0" encoding="UTF-8"?>
<svg width="161px" height="69px" viewBox="0 0 161 69" version="1.1" xmlns="http://www.w3.org/2000/svg" xmlns:xlink="http://www.w3.org/1999/xlink">
    <!-- Generator: Sketch 46.1 (44463) - http://www.bohemiancoding.com/sketch -->
    <title>customers</title>
    <desc>Created with Sketch.</desc>
    <defs></defs>
    <g id="Global-navigation" stroke="none" stroke-width="1" fill="none" fill-rule="evenodd">
        <g id="customers">
            <path d="M47,28.3519437 C47,12.7585706 60.0275035,0 75.9509898,0 C91.873494,0 104.90198,12.7585706 104.90198,28.3519437 L104.90198,68.5681337 L47,68.5681337 L47,28.3519437 Z" id="Fill-1" fill="#2E4369"></path>
            <path d="M79.2369786,50.4739573 C66.4035382,50.4739573 56,40.0704191 56,27.2369786 C56,14.4035382 66.4035382,4 79.2369786,4 C92.0704191,4 102.473957,14.4035382 102.473957,27.2369786 C102.473957,40.0704191 92.0704191,50.4739573 79.2369786,50.4739573 Z" id="Fill-3" fill="#FFEEA9"></path>
            <path d="M88.8568134,40 C88.8568134,42.1040387 87.3220415,43.8093408 85.4284067,43.8093408 C83.5347718,43.8093408 82,42.1040387 82,40 L88.8568134,40 Z" id="Fill-5" fill="#1E2E44"></path>
            <path d="M95.8093408,30.9041498 C95.8093408,31.9556487 94.9566897,32.8093408 93.9041498,32.8093408 C92.852651,32.8093408 92,31.9556487 92,30.9041498 C92,29.852651 92.852651,29 93.9041498,29 C94.9566897,29 95.8093408,29.852651 95.8093408,30.9041498" id="Fill-7" fill="#1E2E44"></path>
            <path d="M78.8093408,30.9041498 C78.8093408,31.9556487 77.9566897,32.8093408 76.9041498,32.8093408 C75.852651,32.8093408 75,31.9556487 75,30.9041498 C75,29.852651 75.852651,29 76.9041498,29 C77.9566897,29 78.8093408,29.852651 78.8093408,30.9041498" id="Fill-9" fill="#1E2E44"></path>
            <path d="M79.2369786,2 C66.4035382,2 56,12.574088 56,25.6179127 L75.6883638,25.6179127 L78.164187,21.2573924 L80.6409873,25.6179127 L102.473957,25.6179127 C102.473957,12.574088 92.0704191,2 79.2369786,2" id="Fill-11" fill="#2E4369"></path>
            <path d="M0,32.808572 C0,21.8688978 8.86814003,13 19.8090601,13 C30.7490039,13 39.6171439,21.8688978 39.6171439,32.808572 C39.6171439,43.7482461 30.7490039,52.6171439 19.8090601,52.6171439 C8.86814003,52.6171439 0,43.7482461 0,32.808572" id="Fill-13" fill="#2E4369"></path>
            <path d="M6,41.0945608 C6,48.8785469 12.3103562,55.1891216 20.095049,55.1891216 C27.8787655,55.1891216 34.1891216,48.8785469 34.1891216,41.0945608 C34.1891216,33.3105748 27.8787655,27 20.095049,27 C12.3103562,27 6,33.3105748 6,41.0945608" id="Fill-15" fill="#76BBFF"></path>
            <path d="M8.33307706,40.6665385 C8.33307706,42.1389927 7.13899267,43.3330771 5.66653853,43.3330771 C4.19314712,43.3330771 3,42.1389927 3,40.6665385 C3,39.1940844 4.19314712,38 5.66653853,38 C7.13899267,38 8.33307706,39.1940844 8.33307706,40.6665385" id="Fill-17" fill="#B59CB0"></path>
            <path d="M20.6187827,54.2365942 C11.9931514,54.2365942 5,47.2436602 5,38.6182971 C5,29.992934 11.9931514,23 20.6187827,23 C29.244414,23 36.2365942,29.992934 36.2365942,38.6182971 C36.2365942,47.2436602 29.244414,54.2365942 20.6187827,54.2365942 Z" id="Fill-19" fill="#B59CB0"></path>
            <path d="M33.7136267,50.0474726 C33.7136267,51.7308189 30.6435004,53.0949452 26.8568134,53.0949452 C23.0701263,53.0949452 20,51.7308189 20,50.0474726 C20,48.3641263 23.0701263,47 26.8568134,47 C30.6435004,47 33.7136267,48.3641263 33.7136267,50.0474726" id="Fill-21" fill="#2E4369"></path>
            <path d="M21.3190951,48.5653207 C13.4595892,46.5021809 6.79430828,43.1395886 5.12278931,36 C4.84651336,37.182038 5.12278931,38.5150375 5.12278931,39.780943 C4.50587206,53.9367856 14.9597973,60.3797809 23.9046023,60.3797809 C32.8503975,60.3797809 39.0958182,54.8129541 37.515401,44.2417058 C37.335178,43.0330276 37.113365,41.7365351 36.8370891,40.5544971 C35.1665603,47.6950723 28.7409166,50.5130194 21.3190951,48.5653207" id="Fill-23" fill="#2E4369"></path>
            <path d="M28.5712089,52 C28.5712089,53.2619789 27.5475833,54.2856045 26.2856045,54.2856045 C25.0227018,54.2856045 24,53.2619789 24,52 L28.5712089,52 Z" id="Fill-25" fill="#FFFFFF"></path>
            <path d="M33.2856045,41.1428022 C33.2856045,41.7737917 32.7737917,42.2856045 32.1428022,42.2856045 C31.5118128,42.2856045 31,41.7737917 31,41.1428022 C31,40.5118128 31.5118128,40 32.1428022,40 C32.7737917,40 33.2856045,40.5118128 33.2856045,41.1428022" id="Fill-27" fill="#1E2E44"></path>
            <path d="M23.2856045,41.1428022 C23.2856045,41.7737917 22.7739984,42.2856045 22.143264,42.2856045 C21.5125295,42.2856045 21,41.7737917 21,41.1428022 C21,40.5118128 21.5125295,40 22.143264,40 C22.7739984,40 23.2856045,40.5118128 23.2856045,41.1428022" id="Fill-29" fill="#1E2E44"></path>
            <path d="M21.7610993,20 C12.5042861,20 5,27.1624986 5,35.9992312 L19.201513,35.9992312 L20.988155,35.9992312 L22.7738222,35.9992312 L38.5221987,35.9992312 C38.5221987,27.1624986 31.0179126,20 21.7610993,20" id="Fill-31" fill="#2E4369"></path>
            <polygon id="Fill-33" fill="#2E4369" points="5 46.1898904 8.04747261 46.1898904 8.04747261 34 5 34"></polygon>
            <path d="M113,57.0934076 L113,41.9479888 C113,29.3266438 123.627913,19 136.617913,19 C149.607913,19 160.235825,29.3266438 160.235825,41.9479888 L160.235825,51.2917469 L113,57.0934076 Z" id="Fill-35" fill="#2E4369"></path>
            <path d="M158.093408,41.0467038 C158.093408,51.5653271 149.566092,60.0934076 139.047197,60.0934076 C128.527315,60.0934076 120,51.5653271 120,41.0467038 C120,30.5280805 128.527315,22 139.047197,22 C149.566092,22 158.093408,30.5280805 158.093408,41.0467038" id="Fill-36" fill="#F5E6E8"></path>
            <path d="M147.094945,52 C147.094945,53.6826725 145.730145,55.0474726 144.047473,55.0474726 C142.3648,55.0474726 141,53.6826725 141,52 L147.094945,52 Z" id="Fill-37" fill="#1E2E44"></path>
            <path d="M152.047473,43.5237363 C152.047473,44.3655852 151.36456,45.0474726 150.523736,45.0474726 C149.681887,45.0474726 149,44.3655852 149,43.5237363 C149,42.6818874 149.681887,42 150.523736,42 C151.36456,42 152.047473,42.6818874 152.047473,43.5237363" id="Fill-38" fill="#1E2E44"></path>
            <path d="M139.047473,43.5237363 C139.047473,44.3655852 138.36456,45.0474726 137.523736,45.0474726 C136.681887,45.0474726 136,44.3655852 136,43.5237363 C136,42.6818874 136.681887,42 137.523736,42 C138.36456,42 139.047473,42.6818874 139.047473,43.5237363" id="Fill-39" fill="#1E2E44"></path>
            <path d="M138.682392,21 C128.22518,21 118,31.9808341 118,41.5704401 L157.617144,36.7620925 C157.617144,27.171519 149.139604,21 138.682392,21" id="Fill-40" fill="#2E4369"></path>
            <path d="M157.569671,37.0505593 C155.656154,26.6196152 146.850634,22.5297703 136.534752,24.4648148 C126.219854,26.3998594 119.408481,36.4251004 121.321998,46.8560446" id="Stroke-41" stroke="#517DBC" stroke-width="2"></path>
            <path d="M124.856813,45.4284067 C124.856813,47.322155 123.32193,48.8568134 121.428908,48.8568134 C119.534883,48.8568134 118,47.322155 118,45.4284067 C118,43.5356614 119.534883,42 121.428908,42 C123.32193,42 124.856813,43.5356614 124.856813,45.4284067" id="Fill-42" fill="#F5E6E8"></path>
        </g>
    </g>
</svg>